<?xml version="1.0" standalone="no"?>
<!DOCTYPE svg PUBLIC "-//W3C//DTD SVG 20010904//EN"
 "http://www.w3.org/TR/2001/REC-SVG-20010904/DTD/svg10.dtd">
<svg version="1.0" xmlns="http://www.w3.org/2000/svg"
 width="145.000000pt" height="145.000000pt" viewBox="0 0 145.000000 145.000000"
 preserveAspectRatio="xMidYMid meet">
<metadata>
Created by potrace 1.14, written by Peter Selinger 2001-2017
</metadata>
<g transform="translate(0.000000,145.000000) scale(0.100000,-0.100000)"
fill="#000000" stroke="none">
<path d="M236 1200 c-54 -57 -57 -39 32 -187 53 -90 56 -93 91 -93 32 0 46 -9
121 -85 51 -51 80 -88 75 -93 -6 -5 -83 -68 -171 -140 -110 -89 -166 -142
-175 -164 -27 -66 -3 -159 54 -202 38 -28 130 -34 173 -11 26 14 209 222 246
279 4 6 68 -50 156 -136 162 -159 174 -166 268 -155 49 5 94 39 120 89 17 32
18 111 3 141 -6 12 -70 81 -141 153 l-130 131 49 7 c101 13 182 73 219 161 18
44 18 146 0 190 -23 55 -48 47 -138 -42 -65 -64 -81 -76 -95 -67 -44 28 -41
40 40 122 88 91 96 115 42 138 -44 18 -146 18 -190 0 -99 -42 -155 -126 -162
-240 -8 -133 -2 -131 -104 -30 -80 79 -89 92 -89 125 0 36 -2 38 -103 98 -57
34 -113 61 -124 61 -11 0 -40 -22 -67 -50z m706 -83 c-65 -66 -73 -87 -48
-135 20 -38 55 -68 99 -87 l38 -16 70 67 c67 66 69 67 69 38 -1 -44 -34 -108
-72 -137 -38 -29 -109 -48 -148 -40 -37 7 -104 -13 -139 -43 -17 -14 -112
-124 -211 -244 -100 -121 -190 -225 -200 -230 -72 -38 -158 48 -120 120 5 10
99 92 207 181 305 250 302 246 309 368 7 103 10 115 40 151 34 40 90 69 134
70 l34 0 -62 -63z m-510 -16 c22 -13 28 -23 28 -51 0 -31 11 -46 95 -130 75
-74 92 -97 83 -108 -9 -11 -30 5 -107 82 -79 78 -102 95 -131 98 -31 3 -39 10
-77 72 -40 65 -42 71 -26 88 16 17 18 17 62 -9 25 -15 58 -34 73 -42z m591
-540 c157 -158 163 -170 132 -230 -17 -34 -65 -56 -102 -46 -17 4 -83 62 -170
148 l-142 142 56 68 c30 37 61 67 67 67 7 0 78 -67 159 -149z"/>
<path d="M334 396 c-12 -31 0 -51 31 -51 24 0 31 5 33 24 6 36 -51 60 -64 27z"/>
<path d="M882 568 c-7 -7 -12 -19 -12 -28 0 -17 151 -170 167 -170 11 0 43 33
43 44 0 16 -154 166 -170 166 -9 0 -21 -5 -28 -12z"/>
</g>
</svg>
